# xmcd
#
# Track frame offsets: 
#        150
#        15285
#        42302
#        68038
#        86004
#        105475
#        107444
#        123503
#        142762
#        161844
#        180759
#        197597
#        223658
#        246597
#
# Disc length: 3563 seconds
#
# Revision: 0
# Processed by: cddbd v1.5.2PL0 Copyright (c) Steve Scherf et al.
# Submitted via: ExactAudioCopy v0.95a5
#
DISCID=b30de90e
DTITLE=Mickey Pantelous - Hangover
DYEAR=2006
DGENRE=Blues
TTITLE0=Intro
TTITLE1=Last night
TTITLE2=Two faced red banana
TTITLE3=Black dog
TTITLE4=The woman with the beard
TTITLE5=Ain't got nobody to teach me right from wrong
TTITLE6=Out here in the distance
TTITLE7=Ester
TTITLE8=There goes Jack
TTITLE9=Trying to get laid
TTITLE10=Requiem
TTITLE11=Consolation from the devil
TTITLE12=Russian speaking danish whore
TTITLE13=Hangover
EXTD=
EXTT0=
EXTT1=
EXTT2=
EXTT3=
EXTT4=
EXTT5=
EXTT6=
EXTT7=
EXTT8=
EXTT9=
EXTT10=
EXTT11=
EXTT12=
EXTT13=
PLAYORDER=
